<svg xmlns="http://www.w3.org/2000/svg" xmlns:xlink="http://www.w3.org/1999/xlink"><symbol id="icon-actions" viewBox="0 0 17 17"><path d="M6.142 1.983c.595.677.892 1.593.892 2.748 0 1.155-.297 2.075-.892 2.758-.595.684-1.391 1.026-2.39 1.026-.997 0-1.793-.342-2.388-1.026C.776 6.806.482 5.886.482 4.731s.294-2.071.882-2.748C1.958 1.299 2.754.958 3.753.958c.998 0 1.794.341 2.39 1.025zm-2.39 4.922c.384 0 .681-.192.893-.574.219-.39.328-.923.328-1.6 0-.684-.11-1.217-.328-1.6-.212-.39-.51-.584-.892-.584-.376 0-.673.195-.892.584-.212.383-.318.916-.318 1.6 0 .677.106 1.21.318 1.6.219.382.516.574.892.574zM3.959 16H1.723l5.732-7.844 5.085-6.952h2.215L9.177 8.843 3.958 16zm11.156-6.347c.595.683.892 1.603.892 2.758s-.297 2.075-.892 2.758c-.595.677-1.39 1.016-2.389 1.016-.998 0-1.794-.339-2.39-1.016-.587-.683-.88-1.603-.88-2.758s.293-2.075.88-2.758c.596-.684 1.392-1.026 2.39-1.026.998 0 1.795.342 2.39 1.026zM11.833 14c.219.39.516.584.892.584s.673-.195.892-.585c.219-.39.328-.922.328-1.6 0-.676-.11-1.21-.328-1.599-.219-.39-.516-.584-.892-.584s-.673.195-.892.584c-.212.39-.318.923-.318 1.6s.106 1.21.318 1.6z"/></symbol><symbol id="icon-address" viewBox="0 0 30 30"><path d="M14.994 0C8.365 0 2.969 5.396 2.969 12.025c0 .755.069 1.516.214 2.258a11.842 11.842 0 00.887 2.774c1.295 3.05 4.144 7.735 10.396 12.754a.854.854 0 001.069 0c6.245-5.018 9.1-9.704 10.396-12.754a11.705 11.705 0 00.887-2.774c.138-.742.214-1.503.214-2.258C27.019 5.396 21.622 0 14.994 0zm10.138 13.987c0 .013-.006.026-.006.038-.006.032-.025.126-.057.27v.013a9.993 9.993 0 01-.698 2.05c-.006.007-.006.02-.012.026-1.176 2.786-3.755 7.037-9.365 11.673-5.61-4.636-8.189-8.887-9.365-11.673-.006-.007-.006-.02-.012-.026a10.651 10.651 0 01-.699-2.05v-.012c-.037-.145-.05-.24-.056-.27 0-.013-.006-.026-.006-.045a10.271 10.271 0 01-.19-1.962c0-5.692 4.636-10.327 10.328-10.327 5.692 0 10.327 4.635 10.327 10.327 0 .666-.063 1.327-.189 1.968z"/><path d="M14.994 4.522c-4.207 0-7.635 3.428-7.635 7.635 0 4.208 3.428 7.635 7.635 7.635 4.208 0 7.635-3.427 7.635-7.635 0-4.207-3.427-7.635-7.635-7.635zm0 13.572a5.944 5.944 0 01-5.937-5.937 5.948 5.948 0 015.937-5.937 5.948 5.948 0 015.937 5.937c0 3.27-2.66 5.937-5.937 5.937z"/></symbol><symbol id="icon-big-arrow" viewBox="0 0 16 29"><path d="M13.214 14.194L.24 27.014a.794.794 0 000 1.136c.32.315.831.315 1.15 0l13.553-13.391a.794.794 0 000-1.136L1.39.238A.823.823 0 00.817 0a.798.798 0 00-.572.238.794.794 0 000 1.136l12.97 12.82z"/></symbol><symbol id="icon-cart" viewBox="0 0 30 23"><path d="M30 0l-.929 2.5H26.66l-4.343 15H5.77L0 3.75h21.015l-.705 2.5H3.76L7.431 15h13.035l4.29-15H30zM10.625 18.75a1.876 1.876 0 10.001 3.751 1.876 1.876 0 00-.001-3.751zm6.25 0a1.875 1.875 0 100 3.75 1.875 1.875 0 000-3.75z"/></symbol><symbol id="icon-checkbox-arrow" viewBox="0 0 8 6"><path fill-rule="evenodd" clip-rule="evenodd" d="M2.545 4.746L.636 2.866 0 3.493 2.545 6 8 .627 7.364 0 2.545 4.746z"/></symbol><symbol id="icon-delivery" viewBox="0 0 16 15"><path fill-rule="evenodd" d="M14.448 15H1.552C.621 15 0 14.272 0 13.445V2.35L2.345 0h11.31L16 2.35v11.095c0 .827-.621 1.555-1.552 1.555zM2.897 1.382l-.587.588h2.828l.276-.588H2.897zM9.759 2.8l-.69-1.418H6.931L6.241 2.8v2.626l1.725-.967h.068l1.725.967V2.8zm3.344-1.418h-2.517l.276.588h2.828l-.587-.588zm1.656 1.971h-3.483v4.354L8.207 5.979h-.138L5 7.707V3.353H1.517v10.092c0 .142.065.207.207.207h12.828c.142 0 .207-.065.207-.207V3.353zm-4.828 7.741H6.069c-.552 0-1.207-.677-1.207-1.728 0-1.05.723-1.555 1.207-1.555h3.862c.484 0 1.207.505 1.207 1.555 0 1.051-.655 1.728-1.207 1.728zm-.207-1.935H6.276v.622h3.448v-.622z"/></symbol><symbol id="icon-dropdown-arrow" viewBox="0 0 12 8"><path fill-rule="evenodd" clip-rule="evenodd" d="M10.6 0L6 4.6 1.4 0 0 1.4l6 6 6-6L10.6 0z"/></symbol><symbol id="icon-logo" viewBox="0 0 80 76"><path d="M.9 70c-.067 0-.1-.033-.1-.1l.04-13.74c0-.053.027-.08.08-.08l3.74-.02c.733-.013 1.4.16 2 .52.613.36 1.1.847 1.46 1.46.36.6.54 1.267.54 2v5.74c0 .773-.187 1.48-.56 2.12a4.253 4.253 0 01-1.5 1.5c-.627.373-1.333.567-2.12.58L.9 70zm2.34-2.46h1.24a1.65 1.65 0 001.24-.52c.347-.347.52-.76.52-1.24v-5.76c0-.427-.16-.793-.48-1.1a1.406 1.406 0 00-1.1-.46l-1.4.02-.02 9.06zM10.314 70c-.054 0-.08-.033-.08-.1l.04-13.74c0-.053.026-.08.08-.08h4.04c.72 0 1.38.18 1.98.54.613.347 1.1.82 1.46 1.42.36.587.54 1.253.54 2 0 .493-.074.94-.22 1.34-.147.387-.32.72-.52 1-.2.267-.38.467-.54.6.72.8 1.08 1.74 1.08 2.82l.02 4.1c0 .067-.034.1-.1.1h-2.26c-.054 0-.08-.02-.08-.06V65.8c0-.48-.174-.893-.52-1.24a1.622 1.622 0 00-1.24-.54h-1.32l-.02 5.88c0 .067-.027.1-.08.1h-2.26zm2.36-8.38h1.72c.413 0 .78-.153 1.1-.46.32-.307.48-.68.48-1.12 0-.427-.16-.793-.48-1.1a1.5 1.5 0 00-1.1-.46h-1.72v3.14zM19.982 70c-.067 0-.1-.033-.1-.1l.02-13.74c0-.053.027-.08.08-.08h2.24c.053 0 .08.027.08.08l.02 13.74c0 .067-.027.1-.08.1h-2.26zm6.34 0c-.054 0-.087-.033-.1-.1l-2.76-13.74c-.014-.053.013-.08.08-.08h2.26c.053 0 .086.027.1.08l1.64 9.16 1.6-9.16c.013-.053.046-.08.1-.08h2.24c.066 0 .093.027.08.08l-2.72 13.74c-.014.067-.047.1-.1.1h-2.42zm6.492 0c-.054 0-.08-.033-.08-.1l.02-13.74c0-.053.026-.08.08-.08h6.42c.053 0 .08.033.08.1v2.24c0 .053-.027.08-.08.08h-4.1v3.12h4.1c.053 0 .08.027.08.08l.02 2.26c0 .053-.027.08-.08.08h-4.12v3.5h4.12c.053 0 .08.033.08.1v2.28c0 .053-.027.08-.08.08h-6.46zm11.367 0c-.054 0-.08-.033-.08-.1l.04-13.74c0-.053.026-.08.08-.08h2.44c.053 0 .1.027.14.08l1.82 2.64 1.82-2.64c.04-.053.086-.08.14-.08h2.46c.053 0 .08.027.08.08l.04 13.74c0 .067-.027.1-.08.1h-2.26c-.054 0-.08-.033-.08-.1l-.02-10.2-2.1 3.04-2.08-3.04-.02 10.2c0 .067-.027.1-.08.1h-2.26zm14.362.2c-.72 0-1.38-.18-1.98-.54a4.373 4.373 0 01-1.42-1.46 3.918 3.918 0 01-.54-2.02l.02-6.34c0-.733.173-1.4.52-2 .36-.6.84-1.08 1.44-1.44a3.74 3.74 0 011.96-.54c.72 0 1.373.18 1.96.54.587.36 1.053.84 1.4 1.44.36.6.54 1.267.54 2l.02 6.34c0 .733-.18 1.407-.54 2.02-.347.6-.82 1.087-1.42 1.46-.587.36-1.24.54-1.96.54zm0-2.42c.4 0 .747-.16 1.04-.48.307-.333.46-.707.46-1.12l-.02-6.34c0-.44-.14-.813-.42-1.12a1.374 1.374 0 00-1.06-.46c-.413 0-.767.153-1.06.46-.293.293-.44.667-.44 1.12v6.34c0 .44.147.82.44 1.14.293.307.647.46 1.06.46zM65.73 70c-.054 0-.08-.033-.08-.1V58.5h-2.6c-.067 0-.1-.033-.1-.1l.02-2.24c0-.053.026-.08.08-.08h7.6c.066 0 .1.027.1.08v2.24c0 .067-.027.1-.08.1h-2.62l.02 11.4c0 .067-.027.1-.08.1h-2.26zm9.258.2c-.72 0-1.38-.18-1.98-.54a4.373 4.373 0 01-1.42-1.46 3.918 3.918 0 01-.54-2.02l.02-6.34c0-.733.174-1.4.52-2 .36-.6.84-1.08 1.44-1.44a3.74 3.74 0 011.96-.54c.72 0 1.374.18 1.96.54.587.36 1.054.84 1.4 1.44.36.6.54 1.267.54 2l.02 6.34c0 .733-.18 1.407-.54 2.02-.346.6-.82 1.087-1.42 1.46-.586.36-1.24.54-1.96.54zm0-2.42c.4 0 .747-.16 1.04-.48.307-.333.46-.707.46-1.12l-.02-6.34c0-.44-.14-.813-.42-1.12a1.374 1.374 0 00-1.06-.46c-.413 0-.766.153-1.06.46-.293.293-.44.667-.44 1.12v6.34c0 .44.147.82.44 1.14.294.307.647.46 1.06.46zM59.044 7.956a2.07 2.07 0 00-2.63-.247c-3.098 2.112-18.636 12.73-20.306 14.4a6.218 6.218 0 000 8.783 6.192 6.192 0 004.392 1.816c1.59 0 3.181-.605 4.392-1.816 1.67-1.67 12.287-17.208 14.399-20.306a2.07 2.07 0 00-.247-2.63zm-17.08 20.008a2.072 2.072 0 01-2.928 0 2.072 2.072 0 010-2.927c.649-.642 5.06-3.788 10.488-7.56-3.773 5.427-6.92 9.838-7.56 10.487z"/><path d="M23.547 36.13l-2.556 1.246a22.25 22.25 0 01-1.395-18.814l2.929 1.405a2.07 2.07 0 001.79-3.733l-2.891-1.387c3.594-5.862 9.812-9.948 17.006-10.611V7.35a2.07 2.07 0 104.14 0V4.234c2.467.225 4.854.853 7.12 1.875a2.07 2.07 0 001.703-3.773A26.299 26.299 0 0040.5 0c-7.078 0-13.733 2.756-18.738 7.762C16.756 12.767 14 19.422 14 26.5c0 5.23 1.553 10.318 4.49 14.711a2.07 2.07 0 002.629.71l4.244-2.07a2.07 2.07 0 10-1.816-3.722zM64.664 15.607a2.07 2.07 0 10-3.773 1.704 22.181 22.181 0 011.968 9.189c0 3.82-.984 7.55-2.86 10.892l-2.668-1.27a2.07 2.07 0 00-1.78 3.738l4.348 2.07a2.07 2.07 0 002.611-.719C65.448 36.818 67 31.731 67 26.5c0-3.795-.786-7.46-2.336-10.893z"/></symbol><symbol id="icon-menu-toggle" viewBox="0 0 34 28"><rect y="0.832" width="33.673" height="3" rx="1.5"/><rect y="12.832" width="33.673" height="3" rx="1.5"/><rect y="24.832" width="33.673" height="3" rx="1.5"/></symbol><symbol id="icon-shops" viewBox="0 0 19 22"><path fill-rule="evenodd" d="M17.506 22h-4.782c-.769 0-1.452-.733-1.452-1.393v-5.741H7.771v5.741c0 .61-.633 1.393-1.452 1.393H1.494A1.485 1.485 0 010 20.523V8.243c0-.646.44-.987.555-1.101C.67 7.028 7.756 1.12 8.411.472c.656-.648 1.604-.609 2.22 0 .617.61 7.276 6.18 7.472 6.374.196.194.897.688.897 1.42v12.257c0 .816-.669 1.477-1.494 1.477zm-.598-13.381L9.521 2.372 2.135 8.577v11.368h3.501v-5.67c0-.816.669-1.477 1.494-1.477h4.782c.826 0 1.495.661 1.495 1.477v5.699h3.501V8.619z"/></symbol><symbol id="icon-small-arrow" viewBox="0 0 6 11"><path d="M.229 9.492a.703.703 0 00-.025 1.012.749.749 0 001.039.024L5.79 6.242a.726.726 0 00-.025-1.046L1.243.936A.749.749 0 00.203.96.703.703 0 00.228 1.97l3.548 3.4a.5.5 0 010 .721l-3.546 3.4z"/></symbol><symbol id="icon-social__facebook" viewBox="0 0 30 30"><path d="M17.419 29.805zM17.719 29.753c-.06.012-.12.022-.18.032.06-.01.12-.02.18-.032zM16.707 29.903zM16.995 29.867zM18.127 29.672zM19.14 29.42c-.042.013-.085.024-.127.036l.127-.035zM18.834 29.505l-.14.036.14-.037zM18.433 29.605l-.148.033.148-.033zM16.262 29.947zM30 15c0-8.283-6.717-15-15-15C6.717 0 0 6.717 0 15c0 8.283 6.717 15 15 15l.264-.003V18.32H12.04v-3.756h3.223V11.8c0-3.205 1.956-4.95 4.816-4.95 1.369 0 2.546.103 2.889.148v3.35h-1.972c-1.555 0-1.857.74-1.857 1.824v2.392h3.72l-.485 3.756H19.14v11.1C25.41 27.623 30 21.848 30 15zM15.991 29.967zM15.513 29.99z"/></symbol><symbol id="icon-social__instagram" viewBox="0 0 30 30"><g clip-path="url(#clip0)"><path d="M15.005 7.297a7.697 7.697 0 00-7.698 7.698 7.697 7.697 0 007.698 7.697 7.697 7.697 0 007.697-7.697 7.697 7.697 0 00-7.697-7.698zm0 12.694a4.995 4.995 0 01-4.997-4.996 4.995 4.995 0 014.997-4.996A4.995 4.995 0 0120 14.995a4.994 4.994 0 01-4.996 4.996z"/><path d="M21.185.095c-2.76-.128-9.596-.122-12.359 0C6.4.21 4.257.795 2.531 2.522-.354 5.407.015 9.294.015 14.996c0 5.835-.325 9.632 2.516 12.473 2.896 2.895 6.84 2.516 12.474 2.516 5.78 0 7.775.004 9.818-.787 2.78-1.079 4.877-3.563 5.082-8.024.13-2.761.122-9.596 0-12.359-.248-5.266-3.074-8.46-8.72-8.72zm4.369 25.466c-1.892 1.89-4.515 1.722-10.585 1.722-6.25 0-8.757.092-10.585-1.741-2.107-2.097-1.725-5.463-1.725-10.567 0-6.906-.71-11.88 6.222-12.235 1.592-.056 2.061-.075 6.07-.075l.056.038c6.662 0 11.888-.698 12.202 6.232.07 1.582.087 2.057.087 6.06-.001 6.177.116 8.698-1.742 10.566z"/><path d="M23.008 8.792a1.799 1.799 0 100-3.597 1.799 1.799 0 000 3.597z"/></g><defs><clipPath id="clip0"><path d="M0 0h30v30H0z"/></clipPath></defs></symbol><symbol id="icon-social__vkontakte" viewBox="0 0 30 30"><path d="M24.894 16.285c-.485-.613-.346-.885 0-1.433.006-.006 4.01-5.538 4.422-7.415h.003c.205-.684 0-1.187-.991-1.187h-3.28c-.835 0-1.22.431-1.427.914 0 0-1.67 3.997-4.032 6.588-.763.75-1.115.99-1.531.99-.206 0-.524-.24-.524-.925v-6.38c0-.82-.234-1.187-.925-1.187H11.45c-.524 0-.835.383-.835.739 0 .777 1.181.956 1.304 3.144v4.746c0 1.04-.189 1.231-.607 1.231-1.116 0-3.822-4.014-5.426-8.607-.323-.892-.64-1.252-1.48-1.252H1.124C.189 6.251 0 6.682 0 7.165c0 .853 1.115 5.091 5.185 10.691 2.713 3.823 6.532 5.894 10.008 5.894 2.088 0 2.343-.46 2.343-1.251 0-3.653-.189-3.998.858-3.998.485 0 1.32.24 3.27 2.084 2.228 2.186 2.595 3.165 3.842 3.165h3.28c.935 0 1.409-.46 1.136-1.367-.623-1.91-4.838-5.835-5.028-6.098z"/></symbol><symbol id="icon-social__youtube" viewBox="0 0 30 30"><path d="M13.132 17.81l4.88-2.81-4.88-2.81v5.62z"/><path d="M15 0C6.717 0 0 6.717 0 15c0 8.283 6.717 15 15 15 8.283 0 15-6.717 15-15 0-8.283-6.717-15-15-15zm9.373 15.015s0 3.042-.386 4.51a2.349 2.349 0 01-1.652 1.651c-1.467.387-7.335.387-7.335.387s-5.852 0-7.335-.402a2.349 2.349 0 01-1.652-1.652C5.627 18.057 5.627 15 5.627 15s0-3.042.386-4.509a2.396 2.396 0 011.652-1.667C9.132 8.438 15 8.438 15 8.438s5.868 0 7.334.401c.803.216 1.436.85 1.653 1.652.401 1.467.386 4.524.386 4.524z"/></symbol><symbol id="icon-sorting-lines" viewBox="0 0 25 19"><rect x="6" width="19" height="3" rx="1.5"/><rect x="6" y="8" width="19" height="3" rx="1.5"/><rect x="6" y="16" width="19" height="3" rx="1.5"/><rect width="3" height="3" rx="1.5"/><rect y="8" width="3" height="3" rx="1.5"/><rect y="16" width="3" height="3" rx="1.5"/></symbol><symbol id="icon-sorting-tiles" viewBox="0 0 23 21"><path fill-rule="evenodd" d="M0 21V0h23v21H0zM21 2H2v17h19V2zM10 9H6V5h4v4zm0 7H6v-4h4v4zm7-7h-4V5h4v4zm0 7h-4v-4h4v4z"/></symbol><symbol id="icon-to-compare" viewBox="0 0 20 28"><rect x="16" y="15.771" width="4" height="11.726" rx="2"/><rect x="8" y="0.528" width="4" height="26.969" rx="2"/><rect y="9.908" width="4" height="17.588" rx="2"/></symbol><symbol id="icon-to-favorites-filled" viewBox="0 0 24 22"><path d="M12 3.435C10.011-1.964 0-1.162 0 7.003 0 11.071 3.06 16.484 12 22c8.94-5.516 12-10.929 12-14.997 0-8.118-10-8.999-12-3.568z"/></symbol><symbol id="icon-to-favorites" viewBox="0 0 24 22"><path d="M12 8.229c.234-1.12 1.547-6.23 5.382-6.23C19.602 2 22 3.552 22 7.004c0 3.907-3.627 8.47-10 12.629-6.373-4.16-10-8.722-10-12.63C2 3.52 4.369 1.999 6.577 1.999c3.923 0 5.145 5.126 5.423 6.23zM0 7.003C0 11.07 3.06 16.483 12 22c8.94-5.516 12-10.93 12-14.997 0-7.962-9.648-9.028-12-3.737C9.662-1.996 0-1.004 0 7.003z"/></symbol><symbol id="icon-user" viewBox="0 0 24 24"><path d="M20.823 18.096c-3.44-.794-6.64-1.49-5.09-4.418C20.453 4.766 16.983 0 12 0 6.918 0 3.536 4.949 8.268 13.678c1.597 2.945-1.725 3.641-5.09 4.418C.105 18.806-.01 20.332 0 23l.004 1h23.99l.005-.969c.012-2.688-.092-4.222-3.176-4.935z"/></symbol><symbol id="icon-zoom" viewBox="0 0 23 24"><path d="M22.725 22.526L17.266 17.1c1.78-1.828 2.908-4.305 2.908-7.076C20.174 4.482 15.664 0 10.087 0 4.509 0 0 4.482 0 10.025s4.51 10.024 10.087 10.024c2.136 0 4.153-.707 5.815-1.828l5.577 5.543c.178.177.415.236.653.236.237 0 .474-.059.652-.236a.908.908 0 00-.059-1.238zM1.78 10.025c0-4.541 3.738-8.256 8.307-8.256 4.569 0 8.307 3.715 8.307 8.256 0 4.54-3.738 8.255-8.307 8.255-4.569 0-8.307-3.715-8.307-8.255z"/></symbol> <view id="icon-actions-view-white" viewBox="0 0 17 17"/><view id="icon-actions-view-light" viewBox="0 27 17 17"/><view id="icon-actions-view-grey" viewBox="0 54 17 17"/><view id="icon-actions-view-dark" viewBox="0 81 17 17"/><view id="icon-actions-view-blue" viewBox="0 108 17 17"/><view id="icon-address-view-white" viewBox="0 135 30 30"/><view id="icon-address-view-light" viewBox="0 175 30 30"/><view id="icon-address-view-grey" viewBox="0 215 30 30"/><view id="icon-address-view-dark" viewBox="0 255 30 30"/><view id="icon-address-view-blue" viewBox="0 295 30 30"/><view id="icon-big-arrow-view-white" viewBox="0 335 16 29"/><view id="icon-big-arrow-view-light" viewBox="0 374 16 29"/><view id="icon-big-arrow-view-grey" viewBox="0 413 16 29"/><view id="icon-big-arrow-view-dark" viewBox="0 452 16 29"/><view id="icon-big-arrow-view-blue" viewBox="0 491 16 29"/><view id="icon-cart-view-white" viewBox="0 530 30 23"/><view id="icon-cart-view-light" viewBox="0 563 30 23"/><view id="icon-cart-view-grey" viewBox="0 596 30 23"/><view id="icon-cart-view-dark" viewBox="0 629 30 23"/><view id="icon-cart-view-blue" viewBox="0 662 30 23"/><view id="icon-checkbox-arrow-view-white" viewBox="0 695 8 6"/><view id="icon-checkbox-arrow-view-light" viewBox="0 711 8 6"/><view id="icon-checkbox-arrow-view-grey" viewBox="0 727 8 6"/><view id="icon-checkbox-arrow-view-dark" viewBox="0 743 8 6"/><view id="icon-checkbox-arrow-view-blue" viewBox="0 759 8 6"/><view id="icon-delivery-view-white" viewBox="0 775 16 15"/><view id="icon-delivery-view-light" viewBox="0 800 16 15"/><view id="icon-delivery-view-grey" viewBox="0 825 16 15"/><view id="icon-delivery-view-dark" viewBox="0 850 16 15"/><view id="icon-delivery-view-blue" viewBox="0 875 16 15"/><view id="icon-dropdown-arrow-view-white" viewBox="0 900 12 8"/><view id="icon-dropdown-arrow-view-light" viewBox="0 918 12 8"/><view id="icon-dropdown-arrow-view-grey" viewBox="0 936 12 8"/><view id="icon-dropdown-arrow-view-dark" viewBox="0 954 12 8"/><view id="icon-dropdown-arrow-view-blue" viewBox="0 972 12 8"/><view id="icon-logo-view-white" viewBox="0 990 80 76"/><view id="icon-logo-view-light" viewBox="0 1076 80 76"/><view id="icon-logo-view-grey" viewBox="0 1162 80 76"/><view id="icon-logo-view-dark" viewBox="0 1248 80 76"/><view id="icon-logo-view-blue" viewBox="0 1334 80 76"/><view id="icon-menu-toggle-view-white" viewBox="0 1420 34 28"/><view id="icon-menu-toggle-view-light" viewBox="0 1458 34 28"/><view id="icon-menu-toggle-view-grey" viewBox="0 1496 34 28"/><view id="icon-menu-toggle-view-dark" viewBox="0 1534 34 28"/><view id="icon-menu-toggle-view-blue" viewBox="0 1572 34 28"/><view id="icon-shops-view-white" viewBox="0 1610 19 22"/><view id="icon-shops-view-light" viewBox="0 1642 19 22"/><view id="icon-shops-view-grey" viewBox="0 1674 19 22"/><view id="icon-shops-view-dark" viewBox="0 1706 19 22"/><view id="icon-shops-view-blue" viewBox="0 1738 19 22"/><view id="icon-small-arrow-view-white" viewBox="0 1770 6 11"/><view id="icon-small-arrow-view-light" viewBox="0 1791 6 11"/><view id="icon-small-arrow-view-grey" viewBox="0 1812 6 11"/><view id="icon-small-arrow-view-dark" viewBox="0 1833 6 11"/><view id="icon-small-arrow-view-blue" viewBox="0 1854 6 11"/><view id="icon-social__facebook-view-white" viewBox="0 1875 30 30"/><view id="icon-social__facebook-view-light" viewBox="0 1915 30 30"/><view id="icon-social__facebook-view-grey" viewBox="0 1955 30 30"/><view id="icon-social__facebook-view-dark" viewBox="0 1995 30 30"/><view id="icon-social__facebook-view-blue" viewBox="0 2035 30 30"/><view id="icon-social__instagram-view-white" viewBox="0 2075 30 30"/><view id="icon-social__instagram-view-light" viewBox="0 2115 30 30"/><view id="icon-social__instagram-view-grey" viewBox="0 2155 30 30"/><view id="icon-social__instagram-view-dark" viewBox="0 2195 30 30"/><view id="icon-social__instagram-view-blue" viewBox="0 2235 30 30"/><view id="icon-social__vkontakte-view-white" viewBox="0 2275 30 30"/><view id="icon-social__vkontakte-view-light" viewBox="0 2315 30 30"/><view id="icon-social__vkontakte-view-grey" viewBox="0 2355 30 30"/><view id="icon-social__vkontakte-view-dark" viewBox="0 2395 30 30"/><view id="icon-social__vkontakte-view-blue" viewBox="0 2435 30 30"/><view id="icon-social__youtube-view-white" viewBox="0 2475 30 30"/><view id="icon-social__youtube-view-light" viewBox="0 2515 30 30"/><view id="icon-social__youtube-view-grey" viewBox="0 2555 30 30"/><view id="icon-social__youtube-view-dark" viewBox="0 2595 30 30"/><view id="icon-social__youtube-view-blue" viewBox="0 2635 30 30"/><view id="icon-sorting-lines-view-white" viewBox="0 2675 25 19"/><view id="icon-sorting-lines-view-light" viewBox="0 2704 25 19"/><view id="icon-sorting-lines-view-grey" viewBox="0 2733 25 19"/><view id="icon-sorting-lines-view-dark" viewBox="0 2762 25 19"/><view id="icon-sorting-lines-view-blue" viewBox="0 2791 25 19"/><view id="icon-sorting-tiles-view-white" viewBox="0 2820 23 21"/><view id="icon-sorting-tiles-view-light" viewBox="0 2851 23 21"/><view id="icon-sorting-tiles-view-grey" viewBox="0 2882 23 21"/><view id="icon-sorting-tiles-view-dark" viewBox="0 2913 23 21"/><view id="icon-sorting-tiles-view-blue" viewBox="0 2944 23 21"/><view id="icon-to-compare-view-white" viewBox="0 2975 20 28"/><view id="icon-to-compare-view-light" viewBox="0 3013 20 28"/><view id="icon-to-compare-view-grey" viewBox="0 3051 20 28"/><view id="icon-to-compare-view-dark" viewBox="0 3089 20 28"/><view id="icon-to-compare-view-blue" viewBox="0 3127 20 28"/><view id="icon-to-favorites-filled-view-white" viewBox="0 3165 24 22"/><view id="icon-to-favorites-filled-view-light" viewBox="0 3197 24 22"/><view id="icon-to-favorites-filled-view-grey" viewBox="0 3229 24 22"/><view id="icon-to-favorites-filled-view-dark" viewBox="0 3261 24 22"/><view id="icon-to-favorites-filled-view-blue" viewBox="0 3293 24 22"/><view id="icon-to-favorites-view-white" viewBox="0 3325 24 22"/><view id="icon-to-favorites-view-light" viewBox="0 3357 24 22"/><view id="icon-to-favorites-view-grey" viewBox="0 3389 24 22"/><view id="icon-to-favorites-view-dark" viewBox="0 3421 24 22"/><view id="icon-to-favorites-view-blue" viewBox="0 3453 24 22"/><view id="icon-user-view-white" viewBox="0 3485 24 24"/><view id="icon-user-view-light" viewBox="0 3519 24 24"/><view id="icon-user-view-grey" viewBox="0 3553 24 24"/><view id="icon-user-view-dark" viewBox="0 3587 24 24"/><view id="icon-user-view-blue" viewBox="0 3621 24 24"/><view id="icon-zoom-view-white" viewBox="0 3655 23 24"/><view id="icon-zoom-view-light" viewBox="0 3689 23 24"/><view id="icon-zoom-view-grey" viewBox="0 3723 23 24"/><view id="icon-zoom-view-dark" viewBox="0 3757 23 24"/><view id="icon-zoom-view-blue" viewBox="0 3791 23 24"/> <use xlink:href="#icon-actions" x="0" y="0" width="17" height="17" style="fill:#ffffff"/><use xlink:href="#icon-actions" x="0" y="27" width="17" height="17" style="fill:#f0f0f4"/><use xlink:href="#icon-actions" x="0" y="54" width="17" height="17" style="fill:#c4c4c4"/><use xlink:href="#icon-actions" x="0" y="81" width="17" height="17" style="fill:#2f3035"/><use xlink:href="#icon-actions" x="0" y="108" width="17" height="17" style="fill:#1c62cd"/><use xlink:href="#icon-address" x="0" y="135" width="30" height="30" style="fill:#ffffff"/><use xlink:href="#icon-address" x="0" y="175" width="30" height="30" style="fill:#f0f0f4"/><use xlink:href="#icon-address" x="0" y="215" width="30" height="30" style="fill:#c4c4c4"/><use xlink:href="#icon-address" x="0" y="255" width="30" height="30" style="fill:#2f3035"/><use xlink:href="#icon-address" x="0" y="295" width="30" height="30" style="fill:#1c62cd"/><use xlink:href="#icon-big-arrow" x="0" y="335" width="16" height="29" style="fill:#ffffff"/><use xlink:href="#icon-big-arrow" x="0" y="374" width="16" height="29" style="fill:#f0f0f4"/><use xlink:href="#icon-big-arrow" x="0" y="413" width="16" height="29" style="fill:#c4c4c4"/><use xlink:href="#icon-big-arrow" x="0" y="452" width="16" height="29" style="fill:#2f3035"/><use xlink:href="#icon-big-arrow" x="0" y="491" width="16" height="29" style="fill:#1c62cd"/><use xlink:href="#icon-cart" x="0" y="530" width="30" height="23" style="fill:#ffffff"/><use xlink:href="#icon-cart" x="0" y="563" width="30" height="23" style="fill:#f0f0f4"/><use xlink:href="#icon-cart" x="0" y="596" width="30" height="23" style="fill:#c4c4c4"/><use xlink:href="#icon-cart" x="0" y="629" width="30" height="23" style="fill:#2f3035"/><use xlink:href="#icon-cart" x="0" y="662" width="30" height="23" style="fill:#1c62cd"/><use xlink:href="#icon-checkbox-arrow" x="0" y="695" width="8" height="6" style="fill:#ffffff"/><use xlink:href="#icon-checkbox-arrow" x="0" y="711" width="8" height="6" style="fill:#f0f0f4"/><use xlink:href="#icon-checkbox-arrow" x="0" y="727" width="8" height="6" style="fill:#c4c4c4"/><use xlink:href="#icon-checkbox-arrow" x="0" y="743" width="8" height="6" style="fill:#2f3035"/><use xlink:href="#icon-checkbox-arrow" x="0" y="759" width="8" height="6" style="fill:#1c62cd"/><use xlink:href="#icon-delivery" x="0" y="775" width="16" height="15" style="fill:#ffffff"/><use xlink:href="#icon-delivery" x="0" y="800" width="16" height="15" style="fill:#f0f0f4"/><use xlink:href="#icon-delivery" x="0" y="825" width="16" height="15" style="fill:#c4c4c4"/><use xlink:href="#icon-delivery" x="0" y="850" width="16" height="15" style="fill:#2f3035"/><use xlink:href="#icon-delivery" x="0" y="875" width="16" height="15" style="fill:#1c62cd"/><use xlink:href="#icon-dropdown-arrow" x="0" y="900" width="12" height="8" style="fill:#ffffff"/><use xlink:href="#icon-dropdown-arrow" x="0" y="918" width="12" height="8" style="fill:#f0f0f4"/><use xlink:href="#icon-dropdown-arrow" x="0" y="936" width="12" height="8" style="fill:#c4c4c4"/><use xlink:href="#icon-dropdown-arrow" x="0" y="954" width="12" height="8" style="fill:#2f3035"/><use xlink:href="#icon-dropdown-arrow" x="0" y="972" width="12" height="8" style="fill:#1c62cd"/><use xlink:href="#icon-logo" x="0" y="990" width="80" height="76" style="fill:#ffffff"/><use xlink:href="#icon-logo" x="0" y="1076" width="80" height="76" style="fill:#f0f0f4"/><use xlink:href="#icon-logo" x="0" y="1162" width="80" height="76" style="fill:#c4c4c4"/><use xlink:href="#icon-logo" x="0" y="1248" width="80" height="76" style="fill:#2f3035"/><use xlink:href="#icon-logo" x="0" y="1334" width="80" height="76" style="fill:#1c62cd"/><use xlink:href="#icon-menu-toggle" x="0" y="1420" width="34" height="28" style="fill:#ffffff"/><use xlink:href="#icon-menu-toggle" x="0" y="1458" width="34" height="28" style="fill:#f0f0f4"/><use xlink:href="#icon-menu-toggle" x="0" y="1496" width="34" height="28" style="fill:#c4c4c4"/><use xlink:href="#icon-menu-toggle" x="0" y="1534" width="34" height="28" style="fill:#2f3035"/><use xlink:href="#icon-menu-toggle" x="0" y="1572" width="34" height="28" style="fill:#1c62cd"/><use xlink:href="#icon-shops" x="0" y="1610" width="19" height="22" style="fill:#ffffff"/><use xlink:href="#icon-shops" x="0" y="1642" width="19" height="22" style="fill:#f0f0f4"/><use xlink:href="#icon-shops" x="0" y="1674" width="19" height="22" style="fill:#c4c4c4"/><use xlink:href="#icon-shops" x="0" y="1706" width="19" height="22" style="fill:#2f3035"/><use xlink:href="#icon-shops" x="0" y="1738" width="19" height="22" style="fill:#1c62cd"/><use xlink:href="#icon-small-arrow" x="0" y="1770" width="6" height="11" style="fill:#ffffff"/><use xlink:href="#icon-small-arrow" x="0" y="1791" width="6" height="11" style="fill:#f0f0f4"/><use xlink:href="#icon-small-arrow" x="0" y="1812" width="6" height="11" style="fill:#c4c4c4"/><use xlink:href="#icon-small-arrow" x="0" y="1833" width="6" height="11" style="fill:#2f3035"/><use xlink:href="#icon-small-arrow" x="0" y="1854" width="6" height="11" style="fill:#1c62cd"/><use xlink:href="#icon-social__facebook" x="0" y="1875" width="30" height="30" style="fill:#ffffff"/><use xlink:href="#icon-social__facebook" x="0" y="1915" width="30" height="30" style="fill:#f0f0f4"/><use xlink:href="#icon-social__facebook" x="0" y="1955" width="30" height="30" style="fill:#c4c4c4"/><use xlink:href="#icon-social__facebook" x="0" y="1995" width="30" height="30" style="fill:#2f3035"/><use xlink:href="#icon-social__facebook" x="0" y="2035" width="30" height="30" style="fill:#1c62cd"/><use xlink:href="#icon-social__instagram" x="0" y="2075" width="30" height="30" style="fill:#ffffff"/><use xlink:href="#icon-social__instagram" x="0" y="2115" width="30" height="30" style="fill:#f0f0f4"/><use xlink:href="#icon-social__instagram" x="0" y="2155" width="30" height="30" style="fill:#c4c4c4"/><use xlink:href="#icon-social__instagram" x="0" y="2195" width="30" height="30" style="fill:#2f3035"/><use xlink:href="#icon-social__instagram" x="0" y="2235" width="30" height="30" style="fill:#1c62cd"/><use xlink:href="#icon-social__vkontakte" x="0" y="2275" width="30" height="30" style="fill:#ffffff"/><use xlink:href="#icon-social__vkontakte" x="0" y="2315" width="30" height="30" style="fill:#f0f0f4"/><use xlink:href="#icon-social__vkontakte" x="0" y="2355" width="30" height="30" style="fill:#c4c4c4"/><use xlink:href="#icon-social__vkontakte" x="0" y="2395" width="30" height="30" style="fill:#2f3035"/><use xlink:href="#icon-social__vkontakte" x="0" y="2435" width="30" height="30" style="fill:#1c62cd"/><use xlink:href="#icon-social__youtube" x="0" y="2475" width="30" height="30" style="fill:#ffffff"/><use xlink:href="#icon-social__youtube" x="0" y="2515" width="30" height="30" style="fill:#f0f0f4"/><use xlink:href="#icon-social__youtube" x="0" y="2555" width="30" height="30" style="fill:#c4c4c4"/><use xlink:href="#icon-social__youtube" x="0" y="2595" width="30" height="30" style="fill:#2f3035"/><use xlink:href="#icon-social__youtube" x="0" y="2635" width="30" height="30" style="fill:#1c62cd"/><use xlink:href="#icon-sorting-lines" x="0" y="2675" width="25" height="19" style="fill:#ffffff"/><use xlink:href="#icon-sorting-lines" x="0" y="2704" width="25" height="19" style="fill:#f0f0f4"/><use xlink:href="#icon-sorting-lines" x="0" y="2733" width="25" height="19" style="fill:#c4c4c4"/><use xlink:href="#icon-sorting-lines" x="0" y="2762" width="25" height="19" style="fill:#2f3035"/><use xlink:href="#icon-sorting-lines" x="0" y="2791" width="25" height="19" style="fill:#1c62cd"/><use xlink:href="#icon-sorting-tiles" x="0" y="2820" width="23" height="21" style="fill:#ffffff"/><use xlink:href="#icon-sorting-tiles" x="0" y="2851" width="23" height="21" style="fill:#f0f0f4"/><use xlink:href="#icon-sorting-tiles" x="0" y="2882" width="23" height="21" style="fill:#c4c4c4"/><use xlink:href="#icon-sorting-tiles" x="0" y="2913" width="23" height="21" style="fill:#2f3035"/><use xlink:href="#icon-sorting-tiles" x="0" y="2944" width="23" height="21" style="fill:#1c62cd"/><use xlink:href="#icon-to-compare" x="0" y="2975" width="20" height="28" style="fill:#ffffff"/><use xlink:href="#icon-to-compare" x="0" y="3013" width="20" height="28" style="fill:#f0f0f4"/><use xlink:href="#icon-to-compare" x="0" y="3051" width="20" height="28" style="fill:#c4c4c4"/><use xlink:href="#icon-to-compare" x="0" y="3089" width="20" height="28" style="fill:#2f3035"/><use xlink:href="#icon-to-compare" x="0" y="3127" width="20" height="28" style="fill:#1c62cd"/><use xlink:href="#icon-to-favorites-filled" x="0" y="3165" width="24" height="22" style="fill:#ffffff"/><use xlink:href="#icon-to-favorites-filled" x="0" y="3197" width="24" height="22" style="fill:#f0f0f4"/><use xlink:href="#icon-to-favorites-filled" x="0" y="3229" width="24" height="22" style="fill:#c4c4c4"/><use xlink:href="#icon-to-favorites-filled" x="0" y="3261" width="24" height="22" style="fill:#2f3035"/><use xlink:href="#icon-to-favorites-filled" x="0" y="3293" width="24" height="22" style="fill:#1c62cd"/><use xlink:href="#icon-to-favorites" x="0" y="3325" width="24" height="22" style="fill:#ffffff"/><use xlink:href="#icon-to-favorites" x="0" y="3357" width="24" height="22" style="fill:#f0f0f4"/><use xlink:href="#icon-to-favorites" x="0" y="3389" width="24" height="22" style="fill:#c4c4c4"/><use xlink:href="#icon-to-favorites" x="0" y="3421" width="24" height="22" style="fill:#2f3035"/><use xlink:href="#icon-to-favorites" x="0" y="3453" width="24" height="22" style="fill:#1c62cd"/><use xlink:href="#icon-user" x="0" y="3485" width="24" height="24" style="fill:#ffffff"/><use xlink:href="#icon-user" x="0" y="3519" width="24" height="24" style="fill:#f0f0f4"/><use xlink:href="#icon-user" x="0" y="3553" width="24" height="24" style="fill:#c4c4c4"/><use xlink:href="#icon-user" x="0" y="3587" width="24" height="24" style="fill:#2f3035"/><use xlink:href="#icon-user" x="0" y="3621" width="24" height="24" style="fill:#1c62cd"/><use xlink:href="#icon-zoom" x="0" y="3655" width="23" height="24" style="fill:#ffffff"/><use xlink:href="#icon-zoom" x="0" y="3689" width="23" height="24" style="fill:#f0f0f4"/><use xlink:href="#icon-zoom" x="0" y="3723" width="23" height="24" style="fill:#c4c4c4"/><use xlink:href="#icon-zoom" x="0" y="3757" width="23" height="24" style="fill:#2f3035"/><use xlink:href="#icon-zoom" x="0" y="3791" width="23" height="24" style="fill:#1c62cd"/></svg>